<?xml version="1.0" encoding="UTF-8"?>
<svg width="419px" height="419px" viewBox="0 0 419 419" version="1.1" xmlns="http://www.w3.org/2000/svg" xmlns:xlink="http://www.w3.org/1999/xlink">
    <g id="Page-1" stroke="none" stroke-width="1" fill="none" fill-rule="evenodd">
        <g id="polymath_logo_final" transform="translate(9.000000, 9.000000)" fill="#E78024" fill-rule="nonzero">
            <g id="Group">
                <path d="M200.79,400.23 C90.45,400.23 0.68,310.46 0.68,200.12 C0.68,89.78 90.45,0 200.79,0 C311.13,0 400.91,89.77 400.91,200.12 C400.91,310.47 311.14,400.23 200.79,400.23 Z M200.79,29.87 C106.92,29.87 30.54,106.24 30.54,200.12 C30.54,294 106.92,370.36 200.79,370.36 C294.66,370.36 371,294 371,200.12 C371,106.24 294.67,29.87 200.79,29.87 Z" id="Shape"></path>
            </g>
            <path d="M166.76,305.88 L154.53,310.12 L142.87,305.88 L142.87,230.6 C142.886526,214.357013 156.04702,201.192046 172.29,201.17 L232.91,201.17 C246.7,201.17 258.11,196.72 265.91,188.31 C272.973785,180.47535 276.810781,170.257651 276.65,159.71 C276.65,139.07 263.13,118.24 232.92,118.24 L172.29,118.24 C169.238148,118.245504 166.765504,120.718148 166.76,123.77 L166.76,186.41 L154.53,184.68 L142.87,186.41 L142.87,123.77 C142.892034,107.530918 156.050918,94.3720341 172.29,94.35 L232.91,94.35 C277.31,94.35 300.53,127.23 300.53,159.71 C300.698958,176.280136 294.589651,192.300097 283.43,204.55 C274.76,213.91 258.96,225.07 232.91,225.07 L172.29,225.07 C169.238148,225.075504 166.765504,227.548148 166.76,230.6 L166.76,305.88 Z" id="Path"></path>
        </g>
    </g>
</svg>